<svg width="217" height="40" viewBox="0 0 217 40" fill="none" xmlns="http://www.w3.org/2000/svg">
<g filter="url(#filter0_d)">
<path d="M8.27734 31H4.83203V5.24805H11.8633C13.2227 5.24805 14.4824 5.42383 15.6426 5.77539C16.8145 6.11523 17.8281 6.61914 18.6836 7.28711C19.5508 7.95508 20.2305 8.78711 20.7227 9.7832C21.2148 10.7676 21.4609 11.9102 21.4609 13.2109C21.4609 14.1367 21.3379 14.998 21.0918 15.7949C20.8457 16.5801 20.5 17.2949 20.0547 17.9395C19.6211 18.584 19.1113 19.1582 18.5254 19.6621C17.9395 20.1543 17.3066 20.5703 16.627 20.9102C15.9473 21.25 15.2383 21.5078 14.5 21.6836C13.7617 21.8594 13.0234 21.9473 12.2852 21.9473C12.1445 21.9473 11.9922 21.9473 11.8281 21.9473C11.6641 21.9355 11.4648 21.9121 11.2305 21.877L11.4766 19.2402C11.6875 19.2754 11.8691 19.2988 12.0215 19.3105C12.1738 19.3105 12.3262 19.3105 12.4785 19.3105C13.2285 19.3105 13.9316 19.1992 14.5879 18.9766C15.2559 18.7422 15.8359 18.3906 16.3281 17.9219C16.832 17.4531 17.2246 16.8672 17.5059 16.1641C17.7988 15.4492 17.9453 14.6055 17.9453 13.6328C17.9453 12.6367 17.7871 11.7812 17.4707 11.0664C17.166 10.3516 16.7207 9.76562 16.1348 9.30859C15.5605 8.85156 14.8516 8.51758 14.0078 8.30664C13.1758 8.08398 12.2383 7.97266 11.1953 7.97266H8.27734V31ZM30.4609 31H27.0156V5.24805H30.4609V31ZM47.2129 31H43.7676V7.97266H35.2246L35.752 5.24805H56.1074L55.5801 7.97266H47.2129V31ZM72.666 24.0039H61.5566L59.1484 31H55.8965L65.4766 5.24805H69.1328L78.7305 31H75.1094L72.666 24.0039ZM71.6992 21.3145L68.2891 11.2598L67.2871 7.67383H66.9355L65.9336 11.2598L62.4883 21.3145H71.6992ZM108.54 29.4209C106.626 30.1592 104.808 30.6787 103.085 30.9795C101.362 31.2666 99.7627 31.4102 98.2861 31.4102C95.8799 31.4102 93.7266 31.0684 91.8262 30.3848C89.9395 29.6875 88.333 28.71 87.0068 27.4521C85.6807 26.1807 84.6689 24.6494 83.9717 22.8584C83.2744 21.0674 82.9258 19.0713 82.9258 16.8701C82.9258 15.1475 83.1377 13.5479 83.5615 12.0713C83.9854 10.5947 84.5732 9.25488 85.3252 8.05176C86.0771 6.83496 86.9795 5.76172 88.0322 4.83203C89.085 3.90234 90.2402 3.12305 91.498 2.49414C92.7559 1.85156 94.0957 1.36621 95.5176 1.03809C96.9395 0.709961 98.4023 0.545898 99.9062 0.545898C100.398 0.545898 100.945 0.566406 101.547 0.607422C102.148 0.648438 102.784 0.716797 103.454 0.8125C104.138 0.894531 104.842 1.01074 105.566 1.16113C106.291 1.29785 107.022 1.47559 107.761 1.69434L106.961 5.65234L106.551 5.85742C105.115 5.1875 103.769 4.73633 102.511 4.50391C101.253 4.27148 100.166 4.15527 99.25 4.15527C97.582 4.15527 96.0713 4.45605 94.7178 5.05762C93.3643 5.64551 92.2021 6.46582 91.2314 7.51855C90.2607 8.55762 89.5088 9.79492 88.9756 11.2305C88.4561 12.6523 88.1963 14.2041 88.1963 15.8857C88.1963 17.4854 88.4355 19.0029 88.9141 20.4385C89.4062 21.874 90.1172 23.1387 91.0469 24.2324C91.9766 25.3262 93.1113 26.1943 94.4512 26.8369C95.791 27.4795 97.3223 27.8008 99.0449 27.8008C99.7695 27.8008 100.562 27.7393 101.424 27.6162C102.299 27.4932 103.16 27.2949 104.008 27.0215V16.6445H108.54V29.4209ZM128.107 28.627C129.455 28.627 130.686 28.3574 131.799 27.8184C132.924 27.2793 133.891 26.541 134.699 25.6035C135.508 24.6543 136.135 23.5469 136.58 22.2812C137.025 21.0156 137.248 19.6504 137.248 18.1855C137.248 16.6504 137.002 15.2383 136.51 13.9492C136.029 12.6484 135.361 11.5293 134.506 10.5918C133.662 9.6543 132.666 8.92773 131.518 8.41211C130.381 7.88477 129.156 7.62109 127.844 7.62109C126.473 7.62109 125.225 7.90234 124.1 8.46484C122.986 9.01562 122.031 9.76562 121.234 10.7148C120.438 11.6641 119.816 12.7773 119.371 14.0547C118.938 15.3203 118.721 16.6738 118.721 18.1152C118.721 19.6504 118.961 21.0625 119.441 22.3516C119.922 23.6289 120.584 24.7363 121.428 25.6738C122.271 26.5996 123.262 27.3262 124.398 27.8535C125.547 28.3691 126.783 28.627 128.107 28.627ZM127.51 31.3516C125.869 31.3516 124.299 31.0586 122.799 30.4727C121.299 29.8867 119.975 29.0488 118.826 27.959C117.689 26.8691 116.781 25.5508 116.102 24.0039C115.434 22.4453 115.1 20.6992 115.1 18.7656C115.1 17.4297 115.264 16.1641 115.592 14.9688C115.932 13.7617 116.4 12.6484 116.998 11.6289C117.596 10.5977 118.305 9.66602 119.125 8.83398C119.957 8.00195 120.871 7.29883 121.867 6.72461C122.863 6.13867 123.918 5.6875 125.031 5.37109C126.156 5.05469 127.316 4.89648 128.512 4.89648C129.578 4.89648 130.621 5.02539 131.641 5.2832C132.672 5.54102 133.645 5.91602 134.559 6.4082C135.484 6.90039 136.328 7.50977 137.09 8.23633C137.863 8.96289 138.531 9.78906 139.094 10.7148C139.656 11.6406 140.09 12.6719 140.395 13.8086C140.711 14.9336 140.869 16.1523 140.869 17.4648C140.869 18.7891 140.705 20.0547 140.377 21.2617C140.061 22.4688 139.604 23.5879 139.006 24.6191C138.42 25.6387 137.717 26.5645 136.896 27.3965C136.088 28.2285 135.186 28.9375 134.189 29.5234C133.205 30.1094 132.145 30.5605 131.008 30.877C129.883 31.1934 128.717 31.3516 127.51 31.3516ZM150.748 20.7344V31H147.303V5.24805H154.58C155.846 5.24805 157.006 5.42383 158.061 5.77539C159.115 6.12695 160.018 6.61328 160.768 7.23438C161.518 7.84375 162.098 8.56445 162.508 9.39648C162.93 10.2285 163.141 11.125 163.141 12.0859C163.141 12.9297 162.988 13.7207 162.684 14.459C162.379 15.1855 161.98 15.8594 161.488 16.4805C160.996 17.0898 160.434 17.6406 159.801 18.1328C159.18 18.625 158.553 19.0527 157.92 19.416L165.496 31H161.365L155.477 20.7344H150.748ZM150.748 18.0098H156.461C156.953 17.7402 157.393 17.4121 157.779 17.0254C158.178 16.6387 158.512 16.2168 158.781 15.7598C159.051 15.291 159.256 14.7988 159.396 14.2832C159.549 13.7676 159.625 13.2402 159.625 12.7012C159.625 12.0332 159.508 11.4121 159.273 10.8379C159.039 10.252 158.682 9.74805 158.201 9.32617C157.732 8.9043 157.141 8.57617 156.426 8.3418C155.711 8.0957 154.873 7.97266 153.912 7.97266H150.748V18.0098ZM185.289 24.0039H174.18L171.771 31H168.52L178.1 5.24805H181.756L191.354 31H187.732L185.289 24.0039ZM184.322 21.3145L180.912 11.2598L179.91 7.67383H179.559L178.557 11.2598L175.111 21.3145H184.322ZM203.43 28.627C204.203 28.627 204.918 28.5273 205.574 28.3281C206.23 28.1172 206.793 27.8242 207.262 27.4492C207.73 27.0625 208.094 26.6055 208.352 26.0781C208.621 25.5508 208.756 24.9648 208.756 24.3203C208.756 23.5586 208.574 22.9141 208.211 22.3867C207.859 21.8594 207.391 21.3965 206.805 20.998C206.23 20.5996 205.568 20.248 204.818 19.9434C204.068 19.627 203.307 19.3105 202.533 18.9941C201.76 18.666 200.998 18.3145 200.248 17.9395C199.498 17.5645 198.83 17.1074 198.244 16.5684C197.67 16.0293 197.201 15.3965 196.838 14.6699C196.486 13.9316 196.311 13.041 196.311 11.998C196.311 10.8965 196.521 9.90625 196.943 9.02734C197.365 8.14844 197.951 7.4043 198.701 6.79492C199.463 6.17383 200.359 5.70508 201.391 5.38867C202.434 5.06055 203.576 4.89648 204.818 4.89648C205.58 4.89648 206.535 4.97266 207.684 5.125C208.832 5.26562 210.051 5.5293 211.34 5.91602L210.76 8.97461L210.408 9.15039C209.764 8.85742 209.137 8.61133 208.527 8.41211C207.918 8.21289 207.344 8.05469 206.805 7.9375C206.266 7.82031 205.768 7.73828 205.311 7.69141C204.854 7.64453 204.455 7.62109 204.115 7.62109C203.424 7.62109 202.797 7.70898 202.234 7.88477C201.684 8.04883 201.209 8.29492 200.811 8.62305C200.424 8.93945 200.119 9.33203 199.896 9.80078C199.686 10.2578 199.58 10.7793 199.58 11.3652C199.58 12.1504 199.756 12.8184 200.107 13.3691C200.471 13.9199 200.945 14.4062 201.531 14.8281C202.129 15.25 202.803 15.625 203.553 15.9531C204.303 16.2812 205.064 16.6094 205.838 16.9375C206.623 17.2656 207.391 17.6172 208.141 17.9922C208.891 18.3672 209.559 18.8066 210.145 19.3105C210.742 19.8027 211.217 20.3887 211.568 21.0684C211.932 21.748 212.113 22.5625 212.113 23.5117C212.113 24.5547 211.885 25.5508 211.428 26.5C210.982 27.4375 210.35 28.2695 209.529 28.9961C208.721 29.7109 207.742 30.2852 206.594 30.7188C205.457 31.1406 204.197 31.3516 202.814 31.3516C202.229 31.3516 201.613 31.3105 200.969 31.2285C200.336 31.1465 199.697 31.0352 199.053 30.8945C198.408 30.7422 197.77 30.5605 197.137 30.3496C196.516 30.1387 195.924 29.9043 195.361 29.6465L195.959 26.5703L196.311 26.3945C197.506 27.0859 198.713 27.6309 199.932 28.0293C201.162 28.4277 202.328 28.627 203.43 28.627Z" fill="white"/>
</g>
<defs>
<filter id="filter0_d" x="0.832031" y="0.545898" width="215.281" height="38.8643" filterUnits="userSpaceOnUse" color-interpolation-filters="sRGB">
<feFlood flood-opacity="0" result="BackgroundImageFix"/>
<feColorMatrix in="SourceAlpha" type="matrix" values="0 0 0 0 0 0 0 0 0 0 0 0 0 0 0 0 0 0 127 0"/>
<feOffset dy="4"/>
<feGaussianBlur stdDeviation="2"/>
<feColorMatrix type="matrix" values="0 0 0 0 0 0 0 0 0 0 0 0 0 0 0 0 0 0 0.25 0"/>
<feBlend mode="normal" in2="BackgroundImageFix" result="effect1_dropShadow"/>
<feBlend mode="normal" in="SourceGraphic" in2="effect1_dropShadow" result="shape"/>
</filter>
</defs>
</svg>
